<svg width="16" height="15" viewBox="0 0 16 15" fill="#7C8187" xmlns="http://www.w3.org/2000/svg">
<path fill-rule="evenodd" clip-rule="evenodd" d="M2.14856 0.232841C1.94775 0.0320276 1.65506 -0.0463988 1.38074 0.0271039C1.10643 0.100607 0.892162 0.314871 0.81866 0.589187C0.745157 0.863503 0.823583 1.15619 1.0244 1.35701L5.48148 5.81409C4.90246 6.89123 5.09804 8.22058 5.96276 9.08531C6.82749 9.95003 8.15684 10.1456 9.23398 9.56659L13.6911 14.0237C13.8397 14.1735 14.0421 14.2578 14.2531 14.2578C14.4642 14.2578 14.6666 14.1735 14.8152 14.0237C14.9651 13.875 15.0494 13.6727 15.0494 13.4616C15.0494 13.2505 14.9651 13.0482 14.8152 12.8995L2.14856 0.232841ZM7.91981 8.31576C7.26398 8.31576 6.73231 7.7841 6.73231 7.12826V7.07284L7.96731 8.30784L7.91981 8.31576ZM15.7336 6.73242C15.2269 5.85367 12.4323 1.44409 7.70606 1.58659C6.82925 1.6126 5.96379 1.79212 5.14898 2.11701L6.39981 3.36784C6.83969 3.25212 7.29108 3.18574 7.74565 3.16992C11.1419 3.08284 13.3744 6.01201 14.079 7.12826C13.5708 7.92174 12.9613 8.64561 12.2661 9.28159L13.4615 10.3978C14.3662 9.55814 15.1425 8.58985 15.7652 7.52409C15.897 7.27352 15.8849 6.97167 15.7336 6.73242ZM8.09398 11.0866C4.68981 11.1658 2.45731 8.24451 1.76065 7.12826C2.2566 6.33714 2.85264 5.61338 3.53398 4.97492L2.37815 3.85867C1.48461 4.70059 0.719137 5.66877 0.106063 6.73242C-0.0353544 6.97737 -0.0353544 7.27915 0.106063 7.52409C0.604813 8.38701 3.27273 12.6699 7.93565 12.6699H8.13356C9.01037 12.6439 9.87583 12.4644 10.6906 12.1395L9.43981 10.8887C8.99994 11.0044 8.54855 11.0708 8.09398 11.0866Z" />
</svg>
