<svg width="17" height="17" viewBox="0 0 17 17" fill="white" xmlns="http://www.w3.org/2000/svg">
<path fill-rule="evenodd" clip-rule="evenodd" d="M10.5761 0.597591L15.9095 5.93092C16.0758 6.09867 16.1686 6.32577 16.1672 6.56204V13.6731C16.1672 15.1459 14.9733 16.3398 13.5006 16.3398H2.8339C1.36114 16.3398 0.167236 15.1459 0.167236 13.6731V3.00648C0.167236 1.53372 1.36114 0.339813 2.8339 0.339813H9.94501C10.064 0.342034 10.1815 0.366139 10.2917 0.410924C10.3976 0.454252 10.4942 0.517635 10.5761 0.597591ZM9.05613 2.11759H5.50057V3.89537H9.05613V2.11759ZM10.8339 14.562H5.50057V11.8954C5.50057 11.4044 5.89854 11.0065 6.38946 11.0065H9.94501C10.4359 11.0065 10.8339 11.4044 10.8339 11.8954V14.562ZM13.5006 14.562C13.9915 14.562 14.3895 14.1641 14.3895 13.6731V6.92648L10.8339 3.37092V4.78426C10.8339 5.27518 10.4359 5.67315 9.94501 5.67315H4.61168C4.12076 5.67315 3.72279 5.27518 3.72279 4.78426V2.11759H2.8339C2.34298 2.11759 1.94501 2.51556 1.94501 3.00648V13.6731C1.94501 14.1641 2.34298 14.562 2.8339 14.562H3.72279V11.8954C3.72279 10.4226 4.9167 9.2287 6.38946 9.2287H9.94501C11.4178 9.2287 12.6117 10.4226 12.6117 11.8954V14.562H13.5006Z" />
</svg>
