<svg width="18" height="20" viewBox="0 0 18 20" fill="#7C8187" xmlns="http://www.w3.org/2000/svg">
<path fill-rule="evenodd" clip-rule="evenodd" d="M17 4H13V3C13 1.34315 11.6569 0 10 0H8C6.34315 0 5 1.34315 5 3V4H1C0.447715 4 0 4.44772 0 5C0 5.55228 0.447715 6 1 6H2V17C2 18.6569 3.34315 20 5 20H13C14.6569 20 16 18.6569 16 17V6H17C17.5523 6 18 5.55228 18 5C18 4.44772 17.5523 4 17 4ZM7 16C7.55228 16 8 15.5523 8 15V9C8 8.44771 7.55228 8 7 8C6.44772 8 6 8.44771 6 9V15C6 15.5523 6.44772 16 7 16ZM8 2C7.44772 2 7 2.44772 7 3V4H11V3C11 2.44772 10.5523 2 10 2H8ZM14 17C14 17.5523 13.5523 18 13 18H5C4.44772 18 4 17.5523 4 17V6H14V17ZM12 15C12 15.5523 11.5523 16 11 16C10.4477 16 10 15.5523 10 15V9C10 8.44771 10.4477 8 11 8C11.5523 8 12 8.44771 12 9V15Z" />
</svg>
